G75*
%MOIN*%
%OFA0B0*%
%FSLAX25Y25*%
%IPPOS*%
%LPD*%
%AMOC8*
5,1,8,0,0,1.08239X$1,22.5*
%
%ADD10C,0.00100*%
%ADD11C,0.00000*%
%ADD12C,0.12211*%
%ADD13C,0.01287*%
%ADD14R,0.05715X0.02762*%
%ADD15R,0.08274X0.05124*%
%ADD16R,0.06900X0.06900*%
%ADD17C,0.06900*%
%ADD18C,0.08000*%
D10*
X0001350Y0007294D02*
X0001350Y0071861D01*
X0104972Y0071861D01*
X0104972Y0007294D01*
X0001350Y0007294D01*
D11*
X0007255Y0019106D02*
X0007257Y0019259D01*
X0007263Y0019413D01*
X0007273Y0019566D01*
X0007287Y0019718D01*
X0007305Y0019871D01*
X0007327Y0020022D01*
X0007352Y0020173D01*
X0007382Y0020324D01*
X0007416Y0020474D01*
X0007453Y0020622D01*
X0007494Y0020770D01*
X0007539Y0020916D01*
X0007588Y0021062D01*
X0007641Y0021206D01*
X0007697Y0021348D01*
X0007757Y0021489D01*
X0007821Y0021629D01*
X0007888Y0021767D01*
X0007959Y0021903D01*
X0008034Y0022037D01*
X0008111Y0022169D01*
X0008193Y0022299D01*
X0008277Y0022427D01*
X0008365Y0022553D01*
X0008456Y0022676D01*
X0008550Y0022797D01*
X0008648Y0022915D01*
X0008748Y0023031D01*
X0008852Y0023144D01*
X0008958Y0023255D01*
X0009067Y0023363D01*
X0009179Y0023468D01*
X0009293Y0023569D01*
X0009411Y0023668D01*
X0009530Y0023764D01*
X0009652Y0023857D01*
X0009777Y0023946D01*
X0009904Y0024033D01*
X0010033Y0024115D01*
X0010164Y0024195D01*
X0010297Y0024271D01*
X0010432Y0024344D01*
X0010569Y0024413D01*
X0010708Y0024478D01*
X0010848Y0024540D01*
X0010990Y0024598D01*
X0011133Y0024653D01*
X0011278Y0024704D01*
X0011424Y0024751D01*
X0011571Y0024794D01*
X0011719Y0024833D01*
X0011868Y0024869D01*
X0012018Y0024900D01*
X0012169Y0024928D01*
X0012320Y0024952D01*
X0012473Y0024972D01*
X0012625Y0024988D01*
X0012778Y0025000D01*
X0012931Y0025008D01*
X0013084Y0025012D01*
X0013238Y0025012D01*
X0013391Y0025008D01*
X0013544Y0025000D01*
X0013697Y0024988D01*
X0013849Y0024972D01*
X0014002Y0024952D01*
X0014153Y0024928D01*
X0014304Y0024900D01*
X0014454Y0024869D01*
X0014603Y0024833D01*
X0014751Y0024794D01*
X0014898Y0024751D01*
X0015044Y0024704D01*
X0015189Y0024653D01*
X0015332Y0024598D01*
X0015474Y0024540D01*
X0015614Y0024478D01*
X0015753Y0024413D01*
X0015890Y0024344D01*
X0016025Y0024271D01*
X0016158Y0024195D01*
X0016289Y0024115D01*
X0016418Y0024033D01*
X0016545Y0023946D01*
X0016670Y0023857D01*
X0016792Y0023764D01*
X0016911Y0023668D01*
X0017029Y0023569D01*
X0017143Y0023468D01*
X0017255Y0023363D01*
X0017364Y0023255D01*
X0017470Y0023144D01*
X0017574Y0023031D01*
X0017674Y0022915D01*
X0017772Y0022797D01*
X0017866Y0022676D01*
X0017957Y0022553D01*
X0018045Y0022427D01*
X0018129Y0022299D01*
X0018211Y0022169D01*
X0018288Y0022037D01*
X0018363Y0021903D01*
X0018434Y0021767D01*
X0018501Y0021629D01*
X0018565Y0021489D01*
X0018625Y0021348D01*
X0018681Y0021206D01*
X0018734Y0021062D01*
X0018783Y0020916D01*
X0018828Y0020770D01*
X0018869Y0020622D01*
X0018906Y0020474D01*
X0018940Y0020324D01*
X0018970Y0020173D01*
X0018995Y0020022D01*
X0019017Y0019871D01*
X0019035Y0019718D01*
X0019049Y0019566D01*
X0019059Y0019413D01*
X0019065Y0019259D01*
X0019067Y0019106D01*
X0019065Y0018953D01*
X0019059Y0018799D01*
X0019049Y0018646D01*
X0019035Y0018494D01*
X0019017Y0018341D01*
X0018995Y0018190D01*
X0018970Y0018039D01*
X0018940Y0017888D01*
X0018906Y0017738D01*
X0018869Y0017590D01*
X0018828Y0017442D01*
X0018783Y0017296D01*
X0018734Y0017150D01*
X0018681Y0017006D01*
X0018625Y0016864D01*
X0018565Y0016723D01*
X0018501Y0016583D01*
X0018434Y0016445D01*
X0018363Y0016309D01*
X0018288Y0016175D01*
X0018211Y0016043D01*
X0018129Y0015913D01*
X0018045Y0015785D01*
X0017957Y0015659D01*
X0017866Y0015536D01*
X0017772Y0015415D01*
X0017674Y0015297D01*
X0017574Y0015181D01*
X0017470Y0015068D01*
X0017364Y0014957D01*
X0017255Y0014849D01*
X0017143Y0014744D01*
X0017029Y0014643D01*
X0016911Y0014544D01*
X0016792Y0014448D01*
X0016670Y0014355D01*
X0016545Y0014266D01*
X0016418Y0014179D01*
X0016289Y0014097D01*
X0016158Y0014017D01*
X0016025Y0013941D01*
X0015890Y0013868D01*
X0015753Y0013799D01*
X0015614Y0013734D01*
X0015474Y0013672D01*
X0015332Y0013614D01*
X0015189Y0013559D01*
X0015044Y0013508D01*
X0014898Y0013461D01*
X0014751Y0013418D01*
X0014603Y0013379D01*
X0014454Y0013343D01*
X0014304Y0013312D01*
X0014153Y0013284D01*
X0014002Y0013260D01*
X0013849Y0013240D01*
X0013697Y0013224D01*
X0013544Y0013212D01*
X0013391Y0013204D01*
X0013238Y0013200D01*
X0013084Y0013200D01*
X0012931Y0013204D01*
X0012778Y0013212D01*
X0012625Y0013224D01*
X0012473Y0013240D01*
X0012320Y0013260D01*
X0012169Y0013284D01*
X0012018Y0013312D01*
X0011868Y0013343D01*
X0011719Y0013379D01*
X0011571Y0013418D01*
X0011424Y0013461D01*
X0011278Y0013508D01*
X0011133Y0013559D01*
X0010990Y0013614D01*
X0010848Y0013672D01*
X0010708Y0013734D01*
X0010569Y0013799D01*
X0010432Y0013868D01*
X0010297Y0013941D01*
X0010164Y0014017D01*
X0010033Y0014097D01*
X0009904Y0014179D01*
X0009777Y0014266D01*
X0009652Y0014355D01*
X0009530Y0014448D01*
X0009411Y0014544D01*
X0009293Y0014643D01*
X0009179Y0014744D01*
X0009067Y0014849D01*
X0008958Y0014957D01*
X0008852Y0015068D01*
X0008748Y0015181D01*
X0008648Y0015297D01*
X0008550Y0015415D01*
X0008456Y0015536D01*
X0008365Y0015659D01*
X0008277Y0015785D01*
X0008193Y0015913D01*
X0008111Y0016043D01*
X0008034Y0016175D01*
X0007959Y0016309D01*
X0007888Y0016445D01*
X0007821Y0016583D01*
X0007757Y0016723D01*
X0007697Y0016864D01*
X0007641Y0017006D01*
X0007588Y0017150D01*
X0007539Y0017296D01*
X0007494Y0017442D01*
X0007453Y0017590D01*
X0007416Y0017738D01*
X0007382Y0017888D01*
X0007352Y0018039D01*
X0007327Y0018190D01*
X0007305Y0018341D01*
X0007287Y0018494D01*
X0007273Y0018646D01*
X0007263Y0018799D01*
X0007257Y0018953D01*
X0007255Y0019106D01*
X0087255Y0019106D02*
X0087257Y0019259D01*
X0087263Y0019413D01*
X0087273Y0019566D01*
X0087287Y0019718D01*
X0087305Y0019871D01*
X0087327Y0020022D01*
X0087352Y0020173D01*
X0087382Y0020324D01*
X0087416Y0020474D01*
X0087453Y0020622D01*
X0087494Y0020770D01*
X0087539Y0020916D01*
X0087588Y0021062D01*
X0087641Y0021206D01*
X0087697Y0021348D01*
X0087757Y0021489D01*
X0087821Y0021629D01*
X0087888Y0021767D01*
X0087959Y0021903D01*
X0088034Y0022037D01*
X0088111Y0022169D01*
X0088193Y0022299D01*
X0088277Y0022427D01*
X0088365Y0022553D01*
X0088456Y0022676D01*
X0088550Y0022797D01*
X0088648Y0022915D01*
X0088748Y0023031D01*
X0088852Y0023144D01*
X0088958Y0023255D01*
X0089067Y0023363D01*
X0089179Y0023468D01*
X0089293Y0023569D01*
X0089411Y0023668D01*
X0089530Y0023764D01*
X0089652Y0023857D01*
X0089777Y0023946D01*
X0089904Y0024033D01*
X0090033Y0024115D01*
X0090164Y0024195D01*
X0090297Y0024271D01*
X0090432Y0024344D01*
X0090569Y0024413D01*
X0090708Y0024478D01*
X0090848Y0024540D01*
X0090990Y0024598D01*
X0091133Y0024653D01*
X0091278Y0024704D01*
X0091424Y0024751D01*
X0091571Y0024794D01*
X0091719Y0024833D01*
X0091868Y0024869D01*
X0092018Y0024900D01*
X0092169Y0024928D01*
X0092320Y0024952D01*
X0092473Y0024972D01*
X0092625Y0024988D01*
X0092778Y0025000D01*
X0092931Y0025008D01*
X0093084Y0025012D01*
X0093238Y0025012D01*
X0093391Y0025008D01*
X0093544Y0025000D01*
X0093697Y0024988D01*
X0093849Y0024972D01*
X0094002Y0024952D01*
X0094153Y0024928D01*
X0094304Y0024900D01*
X0094454Y0024869D01*
X0094603Y0024833D01*
X0094751Y0024794D01*
X0094898Y0024751D01*
X0095044Y0024704D01*
X0095189Y0024653D01*
X0095332Y0024598D01*
X0095474Y0024540D01*
X0095614Y0024478D01*
X0095753Y0024413D01*
X0095890Y0024344D01*
X0096025Y0024271D01*
X0096158Y0024195D01*
X0096289Y0024115D01*
X0096418Y0024033D01*
X0096545Y0023946D01*
X0096670Y0023857D01*
X0096792Y0023764D01*
X0096911Y0023668D01*
X0097029Y0023569D01*
X0097143Y0023468D01*
X0097255Y0023363D01*
X0097364Y0023255D01*
X0097470Y0023144D01*
X0097574Y0023031D01*
X0097674Y0022915D01*
X0097772Y0022797D01*
X0097866Y0022676D01*
X0097957Y0022553D01*
X0098045Y0022427D01*
X0098129Y0022299D01*
X0098211Y0022169D01*
X0098288Y0022037D01*
X0098363Y0021903D01*
X0098434Y0021767D01*
X0098501Y0021629D01*
X0098565Y0021489D01*
X0098625Y0021348D01*
X0098681Y0021206D01*
X0098734Y0021062D01*
X0098783Y0020916D01*
X0098828Y0020770D01*
X0098869Y0020622D01*
X0098906Y0020474D01*
X0098940Y0020324D01*
X0098970Y0020173D01*
X0098995Y0020022D01*
X0099017Y0019871D01*
X0099035Y0019718D01*
X0099049Y0019566D01*
X0099059Y0019413D01*
X0099065Y0019259D01*
X0099067Y0019106D01*
X0099065Y0018953D01*
X0099059Y0018799D01*
X0099049Y0018646D01*
X0099035Y0018494D01*
X0099017Y0018341D01*
X0098995Y0018190D01*
X0098970Y0018039D01*
X0098940Y0017888D01*
X0098906Y0017738D01*
X0098869Y0017590D01*
X0098828Y0017442D01*
X0098783Y0017296D01*
X0098734Y0017150D01*
X0098681Y0017006D01*
X0098625Y0016864D01*
X0098565Y0016723D01*
X0098501Y0016583D01*
X0098434Y0016445D01*
X0098363Y0016309D01*
X0098288Y0016175D01*
X0098211Y0016043D01*
X0098129Y0015913D01*
X0098045Y0015785D01*
X0097957Y0015659D01*
X0097866Y0015536D01*
X0097772Y0015415D01*
X0097674Y0015297D01*
X0097574Y0015181D01*
X0097470Y0015068D01*
X0097364Y0014957D01*
X0097255Y0014849D01*
X0097143Y0014744D01*
X0097029Y0014643D01*
X0096911Y0014544D01*
X0096792Y0014448D01*
X0096670Y0014355D01*
X0096545Y0014266D01*
X0096418Y0014179D01*
X0096289Y0014097D01*
X0096158Y0014017D01*
X0096025Y0013941D01*
X0095890Y0013868D01*
X0095753Y0013799D01*
X0095614Y0013734D01*
X0095474Y0013672D01*
X0095332Y0013614D01*
X0095189Y0013559D01*
X0095044Y0013508D01*
X0094898Y0013461D01*
X0094751Y0013418D01*
X0094603Y0013379D01*
X0094454Y0013343D01*
X0094304Y0013312D01*
X0094153Y0013284D01*
X0094002Y0013260D01*
X0093849Y0013240D01*
X0093697Y0013224D01*
X0093544Y0013212D01*
X0093391Y0013204D01*
X0093238Y0013200D01*
X0093084Y0013200D01*
X0092931Y0013204D01*
X0092778Y0013212D01*
X0092625Y0013224D01*
X0092473Y0013240D01*
X0092320Y0013260D01*
X0092169Y0013284D01*
X0092018Y0013312D01*
X0091868Y0013343D01*
X0091719Y0013379D01*
X0091571Y0013418D01*
X0091424Y0013461D01*
X0091278Y0013508D01*
X0091133Y0013559D01*
X0090990Y0013614D01*
X0090848Y0013672D01*
X0090708Y0013734D01*
X0090569Y0013799D01*
X0090432Y0013868D01*
X0090297Y0013941D01*
X0090164Y0014017D01*
X0090033Y0014097D01*
X0089904Y0014179D01*
X0089777Y0014266D01*
X0089652Y0014355D01*
X0089530Y0014448D01*
X0089411Y0014544D01*
X0089293Y0014643D01*
X0089179Y0014744D01*
X0089067Y0014849D01*
X0088958Y0014957D01*
X0088852Y0015068D01*
X0088748Y0015181D01*
X0088648Y0015297D01*
X0088550Y0015415D01*
X0088456Y0015536D01*
X0088365Y0015659D01*
X0088277Y0015785D01*
X0088193Y0015913D01*
X0088111Y0016043D01*
X0088034Y0016175D01*
X0087959Y0016309D01*
X0087888Y0016445D01*
X0087821Y0016583D01*
X0087757Y0016723D01*
X0087697Y0016864D01*
X0087641Y0017006D01*
X0087588Y0017150D01*
X0087539Y0017296D01*
X0087494Y0017442D01*
X0087453Y0017590D01*
X0087416Y0017738D01*
X0087382Y0017888D01*
X0087352Y0018039D01*
X0087327Y0018190D01*
X0087305Y0018341D01*
X0087287Y0018494D01*
X0087273Y0018646D01*
X0087263Y0018799D01*
X0087257Y0018953D01*
X0087255Y0019106D01*
D12*
X0093161Y0019106D03*
X0013161Y0019106D03*
D13*
X0028157Y0059787D02*
X0028157Y0062401D01*
X0028157Y0059787D02*
X0025543Y0059787D01*
X0025543Y0062401D01*
X0028157Y0062401D01*
X0028157Y0061010D02*
X0025543Y0061010D01*
X0025543Y0062233D02*
X0028157Y0062233D01*
X0034057Y0062401D02*
X0034057Y0059787D01*
X0031443Y0059787D01*
X0031443Y0062401D01*
X0034057Y0062401D01*
X0034057Y0061010D02*
X0031443Y0061010D01*
X0031443Y0062233D02*
X0034057Y0062233D01*
X0034057Y0065787D02*
X0034057Y0068401D01*
X0034057Y0065787D02*
X0031443Y0065787D01*
X0031443Y0068401D01*
X0034057Y0068401D01*
X0034057Y0067010D02*
X0031443Y0067010D01*
X0031443Y0068233D02*
X0034057Y0068233D01*
X0028157Y0068401D02*
X0028157Y0065787D01*
X0025543Y0065787D01*
X0025543Y0068401D01*
X0028157Y0068401D01*
X0028157Y0067010D02*
X0025543Y0067010D01*
X0025543Y0068233D02*
X0028157Y0068233D01*
X0075143Y0064501D02*
X0075143Y0061887D01*
X0075143Y0064501D02*
X0077757Y0064501D01*
X0077757Y0061887D01*
X0075143Y0061887D01*
X0075143Y0063110D02*
X0077757Y0063110D01*
X0077757Y0064333D02*
X0075143Y0064333D01*
X0075143Y0058501D02*
X0075143Y0055887D01*
X0075143Y0058501D02*
X0077757Y0058501D01*
X0077757Y0055887D01*
X0075143Y0055887D01*
X0075143Y0057110D02*
X0077757Y0057110D01*
X0077757Y0058333D02*
X0075143Y0058333D01*
D14*
X0084500Y0051389D03*
X0084500Y0047452D03*
X0084500Y0043515D03*
X0084500Y0039578D03*
X0021822Y0039578D03*
X0021822Y0043515D03*
X0021822Y0047452D03*
X0021822Y0051389D03*
D15*
X0007354Y0056507D03*
X0007354Y0034460D03*
X0098968Y0034460D03*
X0098968Y0056507D03*
D16*
X0038161Y0013200D03*
D17*
X0048161Y0013200D03*
X0058161Y0013200D03*
X0068161Y0013200D03*
D18*
X0053161Y0040602D03*
X0043161Y0050602D03*
X0053161Y0060602D03*
X0063161Y0050602D03*
M02*
