%
M48
M72
T01C0.01200
T02C0.03500
T03C0.04331
T04C0.11811
%
T01
X30550Y12594
X30550Y16594
X41350Y19594
X41350Y22594
X59550Y37594
X49350Y46594
X41550Y43594
X49350Y54594
X56350Y54594
X42450Y67294
X37250Y68594
X22650Y68594
X7350Y51594
X7350Y46594
X7350Y41594
X26450Y48994
X80550Y54594
X99350Y50594
X99350Y46594
X99350Y42594
T02
X68161Y13200
X58161Y13200
X48161Y13200
X38161Y13200
T03
X53161Y40602
X43161Y50602
X53161Y60602
X63161Y50602
T04
X13161Y19106
X93161Y19106
M30
